<?xml version="1.0" encoding="utf-8"?>
<!-- Generator: Adobe Illustrator 24.0.2, SVG Export Plug-In . SVG Version: 6.00 Build 0)  -->
<svg version="1.1" id="レイヤー_1" xmlns="http://www.w3.org/2000/svg" xmlns:xlink="http://www.w3.org/1999/xlink" x="0px"
	 y="0px" viewBox="0 0 146 75" style="enable-background:new 0 0 146 75;" xml:space="preserve">
<style type="text/css">
	.st0{fill:#FFFFFF;}
</style>
<rect x="0.1" y="0" class="st0" width="145.8" height="75"/>
<path d="M101.1,59.8h-4.4v-4.9h-2.4V67h2.4v-5h4.4v5h2.4V54.9h-2.4V59.8z M133,58.7c0,1.8-1.4,3.8-3.9,3.8h-2.3V67h-2.4V54.9h4.5
	c1,0,1.8,0.1,2.8,0.9C132.5,56.4,133,57.5,133,58.7z M130.6,58.7c0-0.6-0.2-1-0.6-1.3c-0.3-0.2-0.6-0.3-1.1-0.3h-2.2v3.1h2.3
	C130.1,60.2,130.6,59.4,130.6,58.7z M18.8,58.9l-3.5-4H13V67h2.4v-8.5l3.5,3.8l3.7-3.9V67H25V54.9h-2.4L18.8,58.9z M53.5,62.8
	l-5.1-7.9h-2.4V67h2.4v-7.7l5.1,7.7h2.4V54.9h-2.4V62.8z M41.7,60.9c0,3.4-2.8,6.1-6.1,6.1c-3.4,0-6.1-2.8-6.1-6.1
	c0-3.4,2.8-6.1,6.1-6.1C38.9,54.8,41.7,57.5,41.7,60.9z M39.2,60.9c0-2-1.7-3.7-3.7-3.7c-2,0-3.7,1.7-3.7,3.7c0,2,1.7,3.7,3.7,3.7
	C37.6,64.6,39.2,63,39.2,60.9z M72.6,60.9c0,3.4-2.8,6.1-6.1,6.1c-3.4,0-6.1-2.8-6.1-6.1c0-3.4,2.8-6.1,6.1-6.1
	C69.9,54.8,72.6,57.5,72.6,60.9z M70.2,60.9c0-2-1.7-3.7-3.7-3.7c-2,0-3.7,1.7-3.7,3.7c0,2,1.7,3.7,3.7,3.7
	C68.5,64.6,70.2,63,70.2,60.9z M120.1,60.9c0,3.4-2.8,6.1-6.1,6.1c-3.4,0-6.1-2.8-6.1-6.1c0-3.4,2.8-6.1,6.1-6.1
	C117.3,54.8,120.1,57.5,120.1,60.9z M117.6,60.9c0-2-1.7-3.7-3.7-3.7c-2,0-3.7,1.7-3.7,3.7c0,2,1.7,3.7,3.7,3.7
	C116,64.6,117.6,63,117.6,60.9z M85.5,57.1c0.3,0,1.6,0,2.9,1l0.1,0.1l1.3-1.9l-0.1-0.1c-1-0.8-2.2-1.5-4.5-1.5
	c-2.4,0-4.1,1.5-4.1,3.6c0,1.7,1,2.7,3.3,3.3l0.2,0.1c1.9,0.5,2.9,0.8,2.9,1.7c0,1.2-1.8,1.2-2,1.2c-0.3,0-1.7-0.1-3.1-1.2l-0.1-0.1
	l-1.5,1.8l0.1,0.1c1.1,0.9,2.3,1.7,4.8,1.7c2.4,0,4.1-1.6,4.1-3.8c0-1.7-1.1-2.8-3.3-3.4c-0.2-0.1-0.4-0.1-0.6-0.1
	c-1.6-0.4-2.6-0.6-2.6-1.5C83.4,57.3,84.7,57.1,85.5,57.1z"/>
<path d="M61.8,25.1c1.9-1.7,2.9-4,2.9-6.8c0-5.1-4-10.4-10.7-10.4c-5.1,0-9.6,4.3-10,9.6l-0.1,1h6.5l0.1-0.8
	c0.5-2.4,2.2-3.2,3.6-3.2c2.2,0,3.9,1.7,3.9,3.9c0,2.3-1.6,3.8-4.2,3.8h-2.6v6h2.9c2.1,0,4.2,1.3,4.2,4.3c0,2.8-2.1,4.3-4.1,4.3
	c-2,0-3.2-0.9-4.1-3.2L50.1,33h-6.5l0.2,1.1c0.9,5.6,5,9.3,10.3,9.3c6.4,0,11-4.7,11-11.1C65,29.4,63.9,26.8,61.8,25.1z"/>
<path d="M100.6,37.2c1.6-2.5,2-4,2-11.6c0-7-0.1-8.4-1.9-11.5c-2.3-3.9-6.2-6-10.9-6H77.3v35h12.2C95.8,43.1,99.2,39.4,100.6,37.2z
	 M89.2,14.7c2.5,0,3.9,0.6,5.2,2.4c1.1,1.5,1.3,2.7,1.3,8.7c0,6.1-0.2,6.8-1.1,8.2c-1.1,1.7-2.9,2.5-5.4,2.5h-5.1V14.7H89.2z"/>
</svg>
