<?xml version="1.0" encoding="utf-8"?>
<!-- Generator: Adobe Illustrator 24.0.2, SVG Export Plug-In . SVG Version: 6.00 Build 0)  -->
<svg version="1.1" id="レイヤー_1" xmlns="http://www.w3.org/2000/svg" xmlns:xlink="http://www.w3.org/1999/xlink" x="0px"
	 y="0px" viewBox="0 0 146 66" style="enable-background:new 0 0 146 66;" xml:space="preserve">
<style type="text/css">
	.st0{fill:#FFFFFF;}
</style>
<path class="st0" d="M101.1,55.3h-4.4v-4.9h-2.4v12.1h2.4v-5h4.4v5h2.4V50.4h-2.4V55.3z M133,54.2c0,1.8-1.4,3.8-3.9,3.8h-2.3v4.5
	h-2.4V50.4h4.5c1,0,1.8,0.1,2.8,0.9C132.5,51.9,133,53,133,54.2z M130.6,54.2c0-0.6-0.2-1-0.6-1.3c-0.3-0.2-0.6-0.3-1.1-0.3h-2.2
	v3.1h2.3C130.1,55.7,130.6,54.9,130.6,54.2z M18.8,54.4l-3.5-4H13v12.1h2.4V54l3.5,3.8l3.7-3.9v8.7H25V50.4h-2.4L18.8,54.4z
	 M53.5,58.3l-5.1-7.9h-2.4v12.1h2.4v-7.7l5.1,7.7h2.4V50.4h-2.4V58.3z M41.7,56.4c0,3.4-2.8,6.1-6.1,6.1c-3.4,0-6.1-2.8-6.1-6.1
	s2.8-6.1,6.1-6.1C38.9,50.3,41.7,53,41.7,56.4z M39.2,56.4c0-2-1.7-3.7-3.7-3.7c-2,0-3.7,1.7-3.7,3.7c0,2,1.7,3.7,3.7,3.7
	C37.6,60.1,39.2,58.5,39.2,56.4z M72.6,56.4c0,3.4-2.8,6.1-6.1,6.1c-3.4,0-6.1-2.8-6.1-6.1s2.8-6.1,6.1-6.1
	C69.9,50.3,72.6,53,72.6,56.4z M70.2,56.4c0-2-1.7-3.7-3.7-3.7c-2,0-3.7,1.7-3.7,3.7c0,2,1.7,3.7,3.7,3.7
	C68.5,60.1,70.2,58.5,70.2,56.4z M120.1,56.4c0,3.4-2.8,6.1-6.1,6.1c-3.4,0-6.1-2.8-6.1-6.1s2.8-6.1,6.1-6.1
	C117.3,50.3,120.1,53,120.1,56.4z M117.6,56.4c0-2-1.7-3.7-3.7-3.7c-2,0-3.7,1.7-3.7,3.7c0,2,1.7,3.7,3.7,3.7
	C116,60.1,117.6,58.5,117.6,56.4z M85.5,52.6c0.3,0,1.6,0,2.9,1l0.1,0.1l1.3-1.9l-0.1-0.1c-1-0.8-2.2-1.5-4.5-1.5
	c-2.4,0-4.1,1.5-4.1,3.6c0,1.7,1,2.7,3.3,3.3l0.2,0.1c1.9,0.5,2.9,0.8,2.9,1.7c0,1.2-1.8,1.2-2,1.2c-0.3,0-1.7-0.1-3.1-1.2L82.3,59
	l-1.5,1.8l0.1,0.1c1.1,0.9,2.3,1.7,4.8,1.7c2.4,0,4.1-1.6,4.1-3.8c0-1.7-1.1-2.8-3.3-3.4c-0.2-0.1-0.4-0.1-0.6-0.1
	c-1.6-0.4-2.6-0.6-2.6-1.5C83.4,52.8,84.7,52.6,85.5,52.6z"/>
<path class="st0" d="M61.8,21.6c1.9-1.7,2.9-4,2.9-6.8c0-5.1-4-10.4-10.7-10.4c-5.1,0-9.6,4.3-10,9.6l-0.1,1h6.5l0.1-0.8
	c0.5-2.4,2.2-3.2,3.6-3.2c2.2,0,3.9,1.7,3.9,3.9c0,2.3-1.6,3.8-4.2,3.8h-2.6v6h2.9c2.1,0,4.2,1.3,4.2,4.3c0,2.8-2.1,4.3-4.1,4.3
	c-2,0-3.2-0.9-4.1-3.2l-0.2-0.6h-6.5l0.2,1.1c0.9,5.6,5,9.3,10.3,9.3c6.4,0,11-4.7,11-11.1C65,25.9,63.9,23.3,61.8,21.6z"/>
<path class="st0" d="M100.6,33.7c1.6-2.5,2-4,2-11.6c0-7-0.1-8.4-1.9-11.5c-2.3-3.9-6.2-6-10.9-6H77.3v35h12.2
	C95.8,39.6,99.2,35.9,100.6,33.7z M89.2,11.2c2.5,0,3.9,0.6,5.2,2.4c1.1,1.5,1.3,2.7,1.3,8.7c0,6.1-0.2,6.8-1.1,8.2
	c-1.1,1.7-2.9,2.5-5.4,2.5h-5.1V11.2H89.2z"/>
</svg>
