<?xml version="1.0" encoding="utf-8"?>
<!-- Generator: Adobe Illustrator 24.0.2, SVG Export Plug-In . SVG Version: 6.00 Build 0)  -->
<svg version="1.1" id="レイヤー_1" xmlns="http://www.w3.org/2000/svg" xmlns:xlink="http://www.w3.org/1999/xlink" x="0px"
	 y="0px" viewBox="0 0 413 125" style="enable-background:new 0 0 413 125;" xml:space="preserve">
<path d="M45.3,36.3h34.6v7.5h-27v46.9h-7.5V36.3z M60.4,67.2h15.7v-7.5H60.4V67.2z M120.2,61.7c0,31.8-25.8,57.6-57.6,57.6
	C30.8,119.3,5,93.5,5,61.7S30.8,4.1,62.6,4.1C94.4,4.1,120.2,29.9,120.2,61.7z M114.4,61.7c0-28.6-23.2-51.8-51.8-51.8
	C34,9.9,10.8,33.1,10.8,61.7c0,28.6,23.2,51.8,51.8,51.8C91.2,113.6,114.4,90.4,114.4,61.7z M154.7,41.9H166v-5.2h-11.3v-6.5h13.3
	v-5.4H149v28.8h5.7V41.9z M295.3,24.8l-5.3,11.1l-5.3-11.1h-6.1l8.7,17v11.8h5.4V41.8l8.7-17H295.3z M322.8,47.5h-9.2l-2.1,6.1h-6
	L316,24.8h4.5l10.5,28.8h-6L322.8,47.5z M321.1,42.3l-2.9-8.8l-2.9,8.8H321.1z M387.7,47.5l-2.1,6.1h-6l10.5-28.8h4.5L405,53.6h-6
	l-2.1-6.1H387.7z M389.4,42.3h5.8l-2.9-8.8L389.4,42.3z M201,43.5V24.7h-5.7V43c0,3.1-1.8,5-4.8,5c-2.9,0-4.8-1.9-4.8-5V24.7h-5.7
	v18.8c0,5.9,4.4,10.2,10.4,10.2C196.7,53.7,201,49.4,201,43.5z M258.5,53.7c6,0,10.4-4.3,10.4-10.2V24.7h-5.7V43c0,3.1-1.8,5-4.8,5
	c-2.9,0-4.8-1.9-4.8-5V24.7h-5.7v18.8C248.1,49.4,252.5,53.7,258.5,53.7z M237.4,53.6l-8.8-14.4l8.8-14.4h-6.6l-8.6,14.4l8.6,14.4
	H237.4z M220,24.8h-5.7v28.8h5.7V24.8z M363.8,33v20.6h5.7V24.8h-5.7l-8.9,9.5l-8.2-9.5h-5.7v28.8h5.7V33.3l8.2,9L363.8,33z
	 M337,83.2h-9.4V72.8h-5.1v25.8h5.1V87.9h9.4v10.7h5.1V72.8H337V83.2z M405,81c0,3.9-2.9,8-8.3,8h-4.9v9.5h-5.1V72.8h9.5
	c2.1,0,3.9,0.3,5.9,1.9C403.9,76,405,78.4,405,81z M399.9,80.9c0-1.2-0.4-2.1-1.3-2.7c-0.6-0.4-1.2-0.6-2.3-0.6h-4.7v6.5h4.8
	C398.9,84.2,399.9,82.5,399.9,80.9z M161.5,81.3l-7.4-8.5H149v25.8h5.1V80.4l7.4,8l8-8.3v18.5h5.1V72.8h-5.1L161.5,81.3z
	 M235.5,89.7l-10.8-16.9h-5.1v25.8h5.1V82.1l10.8,16.5h5.1V72.8h-5.1V89.7z M210.2,85.7c0,7.2-5.9,13.1-13.1,13.1
	c-7.2,0-13.1-5.9-13.1-13.1c0-7.2,5.9-13.1,13.1-13.1C204.3,72.6,210.2,78.4,210.2,85.7z M205,85.7c0-4.4-3.5-7.9-7.9-7.9
	c-4.4,0-7.9,3.5-7.9,7.9c0,4.4,3.5,7.9,7.9,7.9C201.4,93.6,205,90,205,85.7z M276.3,85.7c0,7.2-5.9,13.1-13.1,13.1
	c-7.2,0-13.1-5.9-13.1-13.1c0-7.2,5.9-13.1,13.1-13.1C270.4,72.6,276.3,78.4,276.3,85.7z M271,85.7c0-4.4-3.5-7.9-7.9-7.9
	c-4.4,0-7.9,3.5-7.9,7.9c0,4.4,3.5,7.9,7.9,7.9C267.5,93.6,271,90,271,85.7z M377.5,85.7c0,7.2-5.9,13.1-13.1,13.1
	c-7.2,0-13.1-5.9-13.1-13.1c0-7.2,5.9-13.1,13.1-13.1C371.6,72.6,377.5,78.4,377.5,85.7z M372.3,85.7c0-4.4-3.5-7.9-7.9-7.9
	c-4.4,0-7.9,3.5-7.9,7.9c0,4.4,3.5,7.9,7.9,7.9C368.7,93.6,372.3,90,372.3,85.7z M303.6,77.6c0.5,0,3.4,0.1,6.2,2.2l0.3,0.2l2.9-4.1
	l-0.3-0.2c-2.1-1.6-4.8-3.1-9.6-3.1c-5.1,0-8.8,3.2-8.8,7.7c0,3.6,2.2,5.8,7,7.1l0.5,0.1c4.1,1.1,6.2,1.8,6.2,3.7
	c0,2.5-3.9,2.7-4.3,2.7c-0.6,0-3.6-0.1-6.6-2.5l-0.3-0.2l-3.3,3.7l0.3,0.2c2.3,1.9,5,3.7,10.3,3.7c5.1,0,8.8-3.4,8.8-8
	c0-3.7-2.3-6.1-7-7.3c-0.4-0.1-0.8-0.2-1.2-0.3c-3.4-0.9-5.5-1.3-5.5-3.2C299.3,77.9,302,77.6,303.6,77.6z"/>
</svg>
