<?xml version="1.0" encoding="utf-8"?>
<!-- Generator: Adobe Illustrator 24.0.2, SVG Export Plug-In . SVG Version: 6.00 Build 0)  -->
<svg version="1.1" id="レイヤー_1" xmlns="http://www.w3.org/2000/svg" xmlns:xlink="http://www.w3.org/1999/xlink" x="0px"
	 y="0px" viewBox="0 0 368 523" style="enable-background:new 0 0 368 523;" xml:space="preserve">
<style type="text/css">
	.st0{fill:#FFFFFF;}
	.st1{fill:none;stroke:#FFFFFF;stroke-width:15.3212;stroke-miterlimit:10;}
	.st2{fill:#FFFFFF;stroke:#FFFFFF;stroke-width:0.25;stroke-miterlimit:10;}
</style>
<g>
	<polygon class="st0" points="135.5,110.4 234.5,110.4 234.5,132 157.1,132 157.1,266.4 135.5,266.4 	"/>
	<rect x="178.6" y="177.6" class="st0" width="45.1" height="21.6"/>
	<circle class="st1" cx="185" cy="183.4" r="158"/>
	<polygon class="st2" points="27.3,445.3 20,445.3 20,408.2 44.4,408.2 44.4,415.2 27.3,415.2 27.3,423.6 41.9,423.6 41.9,430.3 
		27.3,430.3 	"/>
	<polygon class="st2" points="208.6,408.2 201.8,422.5 195,408.2 187.2,408.2 198.4,430.1 198.4,445.3 205.4,445.3 205.4,430.1 
		216.6,408.2 	"/>
	<path class="st2" d="M241.1,408.2h-5.8l-13.5,37.1h7.7l2.7-7.8h11.9l2.8,7.8h7.7L241.1,408.2z M234.3,430.7l3.8-11.4l3.8,11.4
		H234.3z"/>
	<path class="st2" d="M336.6,408.2h-5.8l-13.5,37.1h7.7l2.7-7.8h12l2.7,7.8h7.7L336.6,408.2z M329.9,430.7l3.7-11.4l3.8,11.4H329.9z
		"/>
	<path class="st2" d="M87.1,432.3v-24.2h-7.3v23.6c0,4-2.4,6.5-6.2,6.5c-3.8,0-6.2-2.5-6.2-6.5v-23.6h-7.3v24.2
		c0,7.6,5.7,13.2,13.5,13.2S87.1,439.9,87.1,432.3z"/>
	<path class="st2" d="M161.2,445.4c7.8,0,13.5-5.5,13.5-13.2V408h-7.3v23.6c0,4-2.4,6.5-6.2,6.5s-6.2-2.5-6.2-6.5V408h-7.3v24.2
		C147.7,439.9,153.4,445.4,161.2,445.4z"/>
	<polygon class="st2" points="133.9,445.3 122.6,426.8 133.9,408.3 125.5,408.3 114.5,426.8 125.5,445.3 	"/>
	<rect x="104.2" y="408.2" class="st2" width="7.3" height="37.1"/>
	<polygon class="st2" points="296.9,418.8 296.9,445.3 304.2,445.3 304.2,408.2 296.9,408.2 285.5,420.4 274.9,408.2 267.6,408.2 
		267.6,445.3 274.9,445.3 274.9,419.2 285.5,430.7 	"/>
	<polygon class="st2" points="262.3,483.5 250.1,483.5 250.1,470 243.6,470 243.6,503.3 250.1,503.3 250.1,489.5 262.3,489.5 
		262.3,503.3 268.9,503.3 268.9,470 262.3,470 	"/>
	<path class="st2" d="M346.1,472.4c-2.5-2-4.9-2.4-7.6-2.4h-12.3v33.4h6.6v-12.3h6.4c7,0,10.8-5.4,10.8-10.4
		C350,477.3,348.6,474.2,346.1,472.4z M339.1,484.7h-6.2v-8.4h6c1.3,0,2.1,0.1,2.9,0.7c1.1,0.8,1.6,1.9,1.6,3.5
		C343.4,482.6,342.1,484.7,339.1,484.7z"/>
	<polygon class="st2" points="36.1,481 26.6,470 20,470 20,503.3 26.5,503.3 26.5,479.9 36,490.3 46.3,479.6 46.3,503.4 52.9,503.4 
		52.9,470 46.3,470 	"/>
	<polygon class="st2" points="131.5,491.9 117.6,470 111,470 111,503.3 117.5,503.3 117.5,482.1 131.4,503.3 137.9,503.3 137.9,470 
		131.4,470 131.4,491.9 	"/>
	<path class="st2" d="M82,469.8c-9.3,0-16.9,7.6-16.9,16.9s7.6,16.9,16.9,16.9s16.9-7.6,16.9-16.9C98.9,477.3,91.3,469.8,82,469.8z
		 M81.9,496.9c-5.6,0-10.2-4.6-10.2-10.2c0-5.6,4.6-10.2,10.2-10.2c5.6,0,10.2,4.6,10.2,10.2C92.1,492.3,87.6,496.9,81.9,496.9z"/>
	<path class="st2" d="M167.1,469.8c-9.3,0-16.9,7.6-16.9,16.9s7.6,16.9,16.9,16.9c9.3,0,16.9-7.6,16.9-16.9
		C184,477.3,176.4,469.8,167.1,469.8z M167.1,496.9c-5.6,0-10.2-4.6-10.2-10.2c0-5.6,4.6-10.2,10.2-10.2c5.6,0,10.2,4.6,10.2,10.2
		C177.3,492.3,172.7,496.9,167.1,496.9z"/>
	<path class="st2" d="M297.6,469.8c-9.3,0-16.9,7.6-16.9,16.9s7.6,16.9,16.9,16.9s16.9-7.6,16.9-16.9
		C314.5,477.3,306.9,469.8,297.6,469.8z M297.6,496.9c-5.6,0-10.2-4.6-10.2-10.2c0-5.6,4.6-10.2,10.2-10.2c5.6,0,10.2,4.6,10.2,10.2
		C307.8,492.3,303.2,496.9,297.6,496.9z"/>
	<path class="st2" d="M219.3,476.2c0.7,0,4.4,0.1,8,2.8l0.4,0.3l3.7-5.2l-0.3-0.3c-2.7-2.1-6.2-4.1-12.4-4.1
		c-6.6,0-11.3,4.2-11.3,9.9c0,4.6,2.9,7.4,9,9.1l0.6,0.2c5.3,1.4,8,2.3,8,4.7c0,3.2-5,3.4-5.6,3.4c-0.8,0-4.7-0.2-8.4-3.2l-0.3-0.3
		l-4.2,4.8l0.4,0.3c3,2.4,6.4,4.8,13.3,4.8c6.6,0,11.3-4.4,11.3-10.3c0-4.7-2.9-7.8-9-9.5c-0.5-0.1-1-0.3-1.5-0.4
		c-4.4-1.2-7.1-1.7-7.1-4.1C213.7,476.6,217.2,476.2,219.3,476.2z"/>
</g>
</svg>
