<?xml version="1.0" encoding="utf-8"?>
<!-- Generator: Adobe Illustrator 24.0.2, SVG Export Plug-In . SVG Version: 6.00 Build 0)  -->
<svg version="1.1" id="レイヤー_1" xmlns="http://www.w3.org/2000/svg" xmlns:xlink="http://www.w3.org/1999/xlink" x="0px"
	 y="0px" viewBox="0 0 495.2 170.5" style="enable-background:new 0 0 495.2 170.5;" xml:space="preserve">
<style type="text/css">
	.st0{fill:#FFFFFF;}
</style>
<path class="st0" d="M194.8,38.1H208V32h-13.3v-7.6h15.5V18H188v33.7h6.6V38.1H194.8z M359.6,18.1l-6.2,13l-6.2-13h-7.1L350.2,38
	v13.8h6.4V38l10.2-19.9H359.6z M391.8,44.6H381l-2.5,7.1h-7L383.8,18h5.3l12.3,33.7h-7L391.8,44.6z M389.8,38.5l-3.4-10.3L383,38.5
	H389.8z M467.8,44.6l-2.5,7.1h-7L470.6,18h5.3l12.3,33.7h-7l-2.5-7.1H467.8z M469.8,38.5h6.8l-3.4-10.3L469.8,38.5z M249.1,39.9v-22
	h-6.6v21.5c0,3.6-2.1,5.9-5.6,5.9s-5.6-2.2-5.6-5.9V17.9h-6.6v22c0,6.9,5.1,12,12.2,12C244,51.9,249.1,46.9,249.1,39.9z M316.5,51.9
	c7.1,0,12.2-5,12.2-12v-22h-6.6v21.5c0,3.6-2.1,5.9-5.6,5.9s-5.6-2.2-5.6-5.9V17.9h-6.6v22C304.2,46.9,309.4,51.9,316.5,51.9z
	 M291.7,51.8L281.4,35l10.3-16.8H284L274,35l10,16.8H291.7z M271.3,18.1h-6.6v33.7h6.6V18.1z M439.8,27.7v24.1h6.6V18.1h-6.6
	l-10.4,11.1l-9.6-11.1h-6.6v33.7h6.6V28l9.6,10.5L439.8,27.7z M408.4,86.5h-11.1V74.3h-6v30.3h6V92h11.1v12.5h6V74.3h-6V86.5z
	 M488.1,83.9c0,4.6-3.4,9.4-9.8,9.4h-5.8v11.2h-6V74.3h11.2c2.5,0,4.6,0.4,6.9,2.2C486.9,78.1,488.1,80.9,488.1,83.9z M482.2,83.8
	c0-1.5-0.5-2.5-1.5-3.2c-0.8-0.5-1.4-0.7-2.7-0.7h-5.5v7.6h5.6C480.9,87.6,482.2,85.6,482.2,83.8z M202.8,84.2l-8.7-10h-6v30.3h6
	V83.2l8.7,9.4l9.3-9.8v21.6h6V74.3h-6L202.8,84.2z M289.5,94.1l-12.6-19.8h-6v30.3h6V85.2l12.6,19.3h6V74.3h-6V94.1z M259.8,89.4
	c0,8.5-6.9,15.4-15.4,15.4S229,97.9,229,89.4S236,74,244.5,74S259.8,80.9,259.8,89.4z M253.7,89.4c0-5.1-4.2-9.3-9.3-9.3
	c-5.1,0-9.3,4.2-9.3,9.3s4.2,9.3,9.3,9.3C249.6,98.6,253.7,94.5,253.7,89.4z M337.2,89.4c0,8.5-6.9,15.4-15.4,15.4
	s-15.4-6.9-15.4-15.4s7-15.4,15.5-15.4S337.2,80.9,337.2,89.4z M331.1,89.4c0-5.1-4.2-9.3-9.3-9.3c-5.1,0-9.3,4.2-9.3,9.3
	s4.2,9.3,9.3,9.3C327,98.6,331.1,94.5,331.1,89.4z M455.9,89.4c0,8.5-6.9,15.4-15.4,15.4s-15.4-6.9-15.4-15.4S432,74,440.5,74
	S455.9,80.9,455.9,89.4z M449.7,89.4c0-5.1-4.2-9.3-9.3-9.3c-5.1,0-9.3,4.2-9.3,9.3s4.2,9.3,9.3,9.3
	C445.6,98.6,449.7,94.5,449.7,89.4z M369.3,79.9c0.6,0,4,0.1,7.3,2.6l0.3,0.3l3.4-4.8l-0.3-0.2c-2.5-1.9-5.6-3.7-11.3-3.7
	c-6,0-10.3,3.8-10.3,9c0,4.2,2.6,6.8,8.2,8.3l0.5,0.1c4.8,1.3,7.3,2.1,7.3,4.3c0,2.9-4.5,3.1-5.1,3.1c-0.7,0-4.3-0.1-7.7-2.9
	l-0.3-0.2l-3.8,4.4l0.3,0.3c2.7,2.2,5.8,4.3,12.1,4.3c6,0,10.3-4,10.3-9.4c0-4.3-2.7-7.1-8.2-8.6c-0.5-0.1-0.9-0.3-1.4-0.4
	c-4-1.1-6.4-1.6-6.4-3.7C364.3,80.2,367.4,79.9,369.3,79.9z"/>
<g>
	<path class="st0" d="M75.6,28.9c18.7,0,20.9,0.1,28.3,0.4c6.8,0.3,10.5,1.4,13,2.4c3.3,1.3,5.6,2.8,8.1,5.2c2.4,2.4,4,4.8,5.2,8.1
		c0.9,2.5,2.1,6.2,2.4,13c0.3,7.4,0.4,9.6,0.4,28.3s-0.1,20.9-0.4,28.3c-0.3,6.8-1.4,10.5-2.4,13c-1.3,3.3-2.8,5.6-5.2,8.1
		s-4.8,4-8.1,5.2c-2.5,0.9-6.2,2.1-13,2.4c-7.4,0.3-9.6,0.4-28.3,0.4s-20.9-0.1-28.3-0.4c-6.8-0.3-10.5-1.4-13-2.4
		c-3.3-1.3-5.6-2.8-8.1-5.2c-2.4-2.4-4-4.8-5.2-8.1c-0.9-2.5-2.1-6.2-2.4-13c-0.3-7.4-0.4-9.6-0.4-28.3s0.1-20.9,0.4-28.3
		c0.3-6.8,1.4-10.5,2.4-13c1.3-3.3,2.8-5.6,5.2-8.1c2.4-2.4,4.8-4,8.1-5.2c2.5-0.9,6.2-2.1,13-2.4C54.7,28.9,56.9,28.9,75.6,28.9
		 M75.6,16.3c-19,0-21.4,0.1-28.9,0.4c-7.4,0.3-12.5,1.5-17,3.2c-4.6,1.8-8.5,4.2-12.4,8.1S11,35.8,9.2,40.4
		c-1.7,4.4-2.9,9.5-3.2,17c-0.3,7.4-0.4,9.8-0.4,28.8s0.1,21.4,0.4,28.9c0.3,7.4,1.5,12.5,3.2,17c1.8,4.6,4.2,8.5,8.1,12.4
		s7.8,6.3,12.4,8.1c4.4,1.7,9.5,2.9,17,3.3c7.5,0.3,9.8,0.4,28.9,0.4s21.4-0.1,28.9-0.4c7.4-0.3,12.5-1.5,17-3.3
		c4.6-1.8,8.5-4.2,12.4-8.1c3.9-3.9,6.3-7.8,8.1-12.4c1.7-4.4,2.9-9.5,3.3-17c0.3-7.5,0.4-9.8,0.4-28.9s-0.1-21.4-0.4-28.9
		c-0.3-7.4-1.5-12.5-3.3-17c-1.8-4.6-4.2-8.5-8.1-12.4s-7.8-6.3-12.4-8.1c-4.4-1.7-9.5-2.9-17-3.3C97,16.3,94.6,16.3,75.6,16.3
		L75.6,16.3z"/>
	<path class="st0" d="M75.6,50.3c-19.8,0-35.9,16.1-35.9,35.9s16.1,35.9,35.9,35.9s35.9-16.1,35.9-35.9S95.5,50.3,75.6,50.3z
		 M75.6,109.6c-12.9,0-23.3-10.4-23.3-23.3S62.7,63,75.6,63S99,73.3,99,86.2S88.5,109.6,75.6,109.6z"/>
	<circle class="st0" cx="113" cy="48.9" r="8.4"/>
</g>
<g>
	<path class="st0" d="M206.6,132.5c-0.4,0.1-0.4,0.1-0.6,0.6c-2.7,5.2-5.9,7.7-6.9,8.5l-3-2c3.4-2.1,5.9-5.7,7.2-9.4l3.3,1.6
		c0.2,0.1,0.3,0.3,0.3,0.4C207,132.4,206.8,132.5,206.6,132.5z M216.8,152.4c-0.4-0.9-0.7-1.4-1.2-2.4c-6.8,1-11.9,1.4-14.3,1.5
		c-0.4,0-0.6,0.1-0.8,0.3c-0.3,0.4-0.4,0.5-0.6,0.5c-0.3,0-0.4-0.3-0.5-0.7l-0.9-3.7c0.6,0,0.9,0,4-0.1c1.1-2.2,3.1-7.4,4.6-11.9
		l3.5,1.1c0.4,0.1,0.6,0.4,0.6,0.6c0,0.4-0.2,0.4-0.8,0.6c-0.3,0.1-0.3,0.2-0.7,1.1c-1.9,4.3-2.1,4.8-3.9,8.3
		c4.9-0.2,6.5-0.4,8.3-0.5c-0.8-1.6-1.7-2.8-3.5-4.9l2.6-1.8c3.9,4.4,5.7,8.3,6.6,10.1L216.8,152.4z M219,141.5
		c-3.7-2.5-6.2-5.9-7.2-9.5h-2.4v-2.8h5.1c0,0.9,0.1,2.6,2,5.3s4.1,4.1,5,4.6L219,141.5z"/>
	<path class="st0" d="M241.9,150.3c-2.4,0.5-8.1,1.5-8.1,1.5c-0.3,0.1-1.6,0.3-2,0.3c-0.6,0.1-1,0.2-1.3,0.5
		c-0.4,0.4-0.4,0.5-0.6,0.5c-0.1,0-0.3-0.1-0.4-0.3l-0.5-3.4c1.5-0.2,2.5-0.3,4.9-0.6V143h-4.3v-3h11.3v3h-3.6v5.3
		c1.8-0.2,2.4-0.3,4.7-0.6L241.9,150.3z M250.2,152.7c-3,0-5.7-4.5-6.7-6.9c-1.7-3.9-2.1-6.8-2.4-9H229v-3h11.8
		c-0.2-2.2-0.3-3.2-0.3-4.8l2.5,0.3c0.8,0.1,1.3,0.2,1.3,0.6c0,0.1-0.1,0.2-0.3,0.3c-0.3,0.2-0.3,0.3-0.3,0.4
		c0.1,1.7,0.1,2.1,0.1,3.2h8.8v3H244c0.3,1.8,0.9,5.7,3.2,9.5c1.1,1.8,2,2.5,2.6,2.5s1.2-2,1.3-2.6l2.3,2.1
		C253.3,149.1,252.2,152.7,250.2,152.7z M249.5,133.6c-1.4-1.3-2.9-2.3-3.8-2.8l1.6-2.1c1.4,0.7,2.6,1.5,4,2.5L249.5,133.6z"/>
	<path class="st0" d="M281.1,132.1c-0.4,0-0.5,0.1-0.9,0.5c-1.4,1.6-3,3.1-4.6,4.4v14.9h-3.5v-12.3c-1.9,1.3-3.8,2.4-7,4l-2.4-2.5
		c5.8-2.3,12-6.9,16.2-11.9l2.4,2c0.1,0.1,0.5,0.4,0.5,0.7C281.7,132,281.6,132.1,281.1,132.1z"/>
	<path class="st0" d="M300.9,136.6c-1.6-1.3-3.5-2.5-5.7-3.5l1.7-2.6c1.8,0.8,4.1,2,5.9,3.5L300.9,136.6z M309.1,144.2
		c-4.4,3.6-7,4.8-10.5,6.2c-0.1,0.4-0.2,0.9-0.4,0.9c-0.2,0-0.4-0.2-0.6-0.5l-2-3.4c2.2-0.5,5.9-1.5,10.3-4.8
		c4.3-3.2,6.9-6.9,8.2-8.6l1.9,2.8C315,138.3,312.8,141.2,309.1,144.2z"/>
	<path class="st0" d="M345.2,150.7c-2.5-3.1-4.5-5.2-6.8-7c-2.2,2.5-4.3,4.6-9.5,7.2l-2.5-2.5c1.8-0.8,5.3-2.3,8.9-6
		c3-3.2,4.1-6,4.7-7.6h-10.6v-3.2h12c0.5,0,0.9-0.3,1.4-0.6l2.1,2.4c-0.6,0.4-1.2,0.9-1.5,1.7c-0.9,2.2-1.5,3.5-3.2,6.3
		c2.7,2,5.1,4.4,7.4,6.9L345.2,150.7z"/>
	<path class="st0" d="M377.6,136.6c-0.8,2.2-1.3,3.8-3.2,6.7c0.7,0.6,1.4,1.2,2.3,2.1l-2.1,2.4c-0.5-0.4-1-1-2.2-2
		c-2.1,2.4-4.2,4.4-8.8,6.8l-2.5-2.6c4.5-1.6,6.9-3.9,9-6.2c-1.2-0.9-2.5-1.8-4.6-2.9l1.7-2.1c1.7,0.7,2.8,1.3,4.7,2.7
		c1.7-2.5,2.1-3.8,2.5-5.2h-7.1c-1.8,2.6-3.2,4.2-5,5.7l-2.6-1.9c3.9-2.7,6.6-7.5,7.8-11l3.1,0.9c0.2,0.1,0.6,0.2,0.6,0.4
		s-0.3,0.3-0.6,0.4c-0.3,0.7-0.9,1.8-1.4,2.7h6.4c0.3,0,0.8-0.4,1.3-0.7l2.1,2.2C378.3,135.4,377.8,135.9,377.6,136.6z"/>
	<path class="st0" d="M409.3,136.8c-0.9,2.5-2,5.4-4.7,8.8c-3,3.7-6,5.6-7.6,6.7l-3.1-2.2c1.7-0.9,5.5-2.7,8.9-7.4
		c2.3-3.2,3.1-5.7,3.6-7h-7.1c-1.6,2.3-2.8,3.7-5.3,6.2l-2.8-2c4-3.2,6.7-7.3,7.9-10.8l2.8,1.3c0.2,0.1,0.7,0.3,0.7,0.6
		c0,0.2-0.2,0.2-0.6,0.4c-0.3,0.4-0.6,1.1-0.9,1.5h6.2c0.3,0,0.7-0.1,1.2-0.4l2.3,2.7C409.9,135.8,409.4,136.4,409.3,136.8z
		 M407.9,131.5c-0.7-0.9-1.4-1.6-2.4-2.3l1.4-1.1c0.9,0.7,1.7,1.4,2.4,2.3L407.9,131.5z M411.9,131.5c-0.5-0.7-1.3-1.8-2.5-2.7
		l1.4-1.1c0.9,0.7,1.8,1.8,2.5,2.7L411.9,131.5z"/>
	<path class="st0" d="M441.8,139.8c-1.1,2.5-2.1,5.1-4.6,7.8c-2.8,3.1-5.9,4.4-7.7,5.2l-2.6-2.4c1.7-0.6,4.8-1.7,7.8-5
		c2.3-2.5,3.1-4.8,3.5-5.9h-14.5v-3.1h15.8c0.4,0,1-0.3,1.4-0.5l2.3,2.4C442.2,139,441.9,139.6,441.8,139.8z M426.6,133.2V130h13.2
		v3.2H426.6z"/>
	<path class="st0" d="M473.2,150.8c-0.3-1.2-0.6-1.8-1.2-3.1c-2.7,0.4-15.9,2.7-16.1,2.8c-0.1,0-0.4,0.4-0.4,0.4
		c-0.1,0.1-0.1,0.1-0.2,0.1c-0.2,0-0.3-0.3-0.4-0.8l-0.7-3.2c0.7,0,1.5-0.1,3.1-0.2c2.2-5.5,4.3-11.7,5.5-16.5l3.3,0.8
		c0.3,0.1,0.8,0.3,0.8,0.5c0,0.1-0.1,0.2-0.5,0.4c-0.3,0.1-0.3,0.2-0.6,1c-1.5,4.3-3.8,10.4-5,13.4c4-0.4,6.9-0.8,9.9-1.4
		c-0.7-1.1-1.6-2.7-3.2-4.3l3-1.5c2.7,3.2,4.5,6.4,6,9.9L473.2,150.8z"/>
</g>
</svg>
